<svg width="18" height="18" viewBox="0 0 18 18" fill="none" xmlns="http://www.w3.org/2000/svg">
<path d="M3.67974 3.7941L3.73181 3.73178C3.88802 3.57557 4.1305 3.55821 4.30588 3.67971L4.3682 3.73178L9.00001 8.36368L13.6318 3.73178C13.788 3.57557 14.0305 3.55821 14.2059 3.67971L14.2682 3.73178C14.4244 3.88799 14.4418 4.13047 14.3203 4.30585L14.2682 4.36817L9.63631 8.99998L14.2682 13.6318C14.4244 13.788 14.4418 14.0305 14.3203 14.2059L14.2682 14.2682C14.112 14.4244 13.8695 14.4417 13.6941 14.3202L13.6318 14.2682L9.00001 9.63628L4.3682 14.2682C4.21199 14.4244 3.96951 14.4417 3.79413 14.3202L3.73181 14.2682C3.5756 14.112 3.55824 13.8695 3.67974 13.6941L3.73181 13.6318L8.36371 8.99998L3.73181 4.36817C3.5756 4.21196 3.55824 3.96948 3.67974 3.7941L3.73181 3.73178L3.67974 3.7941Z" fill="black" fill-opacity="0.8"/>
</svg>
