<svg width="18" height="18" viewBox="0 0 18 18" fill="none" xmlns="http://www.w3.org/2000/svg">
<path d="M4.48611 3H13.5139C14.6108 3 15.5 3.82081 15.5 4.83333V13.1667C15.5 14.1792 14.6108 15 13.5139 15H4.48611C3.38921 15 2.5 14.1792 2.5 13.1667V4.83333C2.5 3.82081 3.38921 3 4.48611 3ZM4.48611 4C3.98752 4 3.58333 4.37309 3.58333 4.83333V13.1667C3.58333 13.6269 3.98752 14 4.48611 14H13.5139C14.0125 14 14.4167 13.6269 14.4167 13.1667V4.83333C14.4167 4.37309 14.0125 4 13.5139 4H4.48611Z" fill="black" fill-opacity="0.8"/>
</svg>
